<mxfile host="app.diagrams.net" modified="2023-10-10T11:49:49.648Z" agent="Mozilla/5.0 (Windows NT 10.0; Win64; x64) AppleWebKit/537.36 (KHTML, like Gecko) Chrome/117.0.0.0 Safari/537.36" etag="ImLf01DrX3wZhcCpY2EX" version="22.0.4" type="github">
  <diagram name="Página-1" id="lnndSEURTtttiNDtdOGS">
    <mxGraphModel dx="1687" dy="892" grid="1" gridSize="10" guides="1" tooltips="1" connect="1" arrows="1" fold="1" page="1" pageScale="1" pageWidth="827" pageHeight="1169" math="0" shadow="0">
      <root>
        <mxCell id="0" />
        <mxCell id="1" parent="0" />
        <mxCell id="yHfBSHlc2RKCIh9T5XHs-2" style="edgeStyle=orthogonalEdgeStyle;rounded=0;orthogonalLoop=1;jettySize=auto;html=1;exitX=0.5;exitY=1;exitDx=0;exitDy=0;entryX=0.5;entryY=0;entryDx=0;entryDy=0;labelBackgroundColor=none;fontColor=default;" edge="1" parent="1" source="efyp2yeO5euqZWZ3HtJA-7" target="yHfBSHlc2RKCIh9T5XHs-1">
          <mxGeometry relative="1" as="geometry" />
        </mxCell>
        <mxCell id="efyp2yeO5euqZWZ3HtJA-7" value="INICIO" style="rounded=1;whiteSpace=wrap;html=1;labelBackgroundColor=none;" parent="1" vertex="1">
          <mxGeometry x="353.5" y="140" width="120" height="60" as="geometry" />
        </mxCell>
        <mxCell id="yHfBSHlc2RKCIh9T5XHs-5" style="edgeStyle=orthogonalEdgeStyle;rounded=0;orthogonalLoop=1;jettySize=auto;html=1;exitX=0.5;exitY=1;exitDx=0;exitDy=0;entryX=0.5;entryY=0;entryDx=0;entryDy=0;labelBackgroundColor=none;fontColor=default;" edge="1" parent="1" source="yHfBSHlc2RKCIh9T5XHs-1" target="yHfBSHlc2RKCIh9T5XHs-3">
          <mxGeometry relative="1" as="geometry" />
        </mxCell>
        <mxCell id="yHfBSHlc2RKCIh9T5XHs-1" value="RES = 0" style="rounded=1;whiteSpace=wrap;html=1;labelBackgroundColor=none;" vertex="1" parent="1">
          <mxGeometry x="353.5" y="250" width="120" height="60" as="geometry" />
        </mxCell>
        <mxCell id="yHfBSHlc2RKCIh9T5XHs-9" style="edgeStyle=orthogonalEdgeStyle;rounded=0;orthogonalLoop=1;jettySize=auto;html=1;exitX=0.5;exitY=1;exitDx=0;exitDy=0;entryX=0.5;entryY=0;entryDx=0;entryDy=0;labelBackgroundColor=none;fontColor=default;" edge="1" parent="1" source="yHfBSHlc2RKCIh9T5XHs-3" target="yHfBSHlc2RKCIh9T5XHs-8">
          <mxGeometry relative="1" as="geometry" />
        </mxCell>
        <mxCell id="yHfBSHlc2RKCIh9T5XHs-3" value="&lt;p style=&quot;line-height:1.2;text-align: justify;margin-top:0pt;margin-bottom:0pt;&quot; dir=&quot;ltr&quot;&gt;&lt;/p&gt;&lt;p style=&quot;line-height:1.2;text-align: justify;margin-top:0pt;margin-bottom:0pt;&quot; dir=&quot;ltr&quot;&gt;&lt;/p&gt;&lt;div&gt;&lt;br&gt;&lt;/div&gt;&lt;p&gt;&lt;/p&gt;&lt;span style=&quot;font-family: Calibri, sans-serif; background-color: transparent; font-style: italic; font-variant-numeric: normal; font-variant-east-asian: normal; font-variant-alternates: normal; font-variant-position: normal; vertical-align: baseline;&quot;&gt;&lt;font style=&quot;font-size: 14px;&quot;&gt;ESCREVER “TIPO DE OPERAÇÃO : S - SOMAR OU M- MULTIPLICAR&quot;&lt;/font&gt;&lt;/span&gt;&lt;p&gt;&lt;/p&gt;&lt;font size=&quot;3&quot;&gt;&lt;span id=&quot;docs-internal-guid-f2d8c299-7fff-7541-6df8-0c7d756360bc&quot;&gt;&lt;/span&gt;&lt;/font&gt;" style="shape=parallelogram;perimeter=parallelogramPerimeter;whiteSpace=wrap;html=1;fixedSize=1;labelBackgroundColor=none;" vertex="1" parent="1">
          <mxGeometry x="253" y="370" width="321" height="60" as="geometry" />
        </mxCell>
        <mxCell id="yHfBSHlc2RKCIh9T5XHs-11" style="edgeStyle=orthogonalEdgeStyle;rounded=0;orthogonalLoop=1;jettySize=auto;html=1;exitX=0.5;exitY=1;exitDx=0;exitDy=0;entryX=0.5;entryY=0;entryDx=0;entryDy=0;labelBackgroundColor=none;fontColor=default;" edge="1" parent="1" source="yHfBSHlc2RKCIh9T5XHs-8" target="yHfBSHlc2RKCIh9T5XHs-10">
          <mxGeometry relative="1" as="geometry" />
        </mxCell>
        <mxCell id="yHfBSHlc2RKCIh9T5XHs-8" value="LER OP" style="rounded=1;whiteSpace=wrap;html=1;labelBackgroundColor=none;" vertex="1" parent="1">
          <mxGeometry x="353.5" y="470" width="120" height="60" as="geometry" />
        </mxCell>
        <mxCell id="yHfBSHlc2RKCIh9T5XHs-14" style="edgeStyle=orthogonalEdgeStyle;rounded=0;orthogonalLoop=1;jettySize=auto;html=1;exitX=0.5;exitY=1;exitDx=0;exitDy=0;entryX=0.5;entryY=0;entryDx=0;entryDy=0;labelBackgroundColor=none;fontColor=default;" edge="1" parent="1" source="yHfBSHlc2RKCIh9T5XHs-10" target="yHfBSHlc2RKCIh9T5XHs-12">
          <mxGeometry relative="1" as="geometry" />
        </mxCell>
        <mxCell id="yHfBSHlc2RKCIh9T5XHs-10" value="ESCREVER &quot;ESCREVA OS 2 NUMEROS&quot;" style="rounded=1;whiteSpace=wrap;html=1;labelBackgroundColor=none;" vertex="1" parent="1">
          <mxGeometry x="353.5" y="560" width="120" height="60" as="geometry" />
        </mxCell>
        <mxCell id="yHfBSHlc2RKCIh9T5XHs-17" style="edgeStyle=orthogonalEdgeStyle;rounded=0;orthogonalLoop=1;jettySize=auto;html=1;exitX=0.5;exitY=1;exitDx=0;exitDy=0;entryX=1;entryY=0.5;entryDx=0;entryDy=0;labelBackgroundColor=none;fontColor=default;" edge="1" parent="1" source="yHfBSHlc2RKCIh9T5XHs-12" target="yHfBSHlc2RKCIh9T5XHs-15">
          <mxGeometry relative="1" as="geometry" />
        </mxCell>
        <mxCell id="yHfBSHlc2RKCIh9T5XHs-18" style="edgeStyle=orthogonalEdgeStyle;rounded=0;orthogonalLoop=1;jettySize=auto;html=1;exitX=0.5;exitY=1;exitDx=0;exitDy=0;entryX=0;entryY=0.5;entryDx=0;entryDy=0;labelBackgroundColor=none;fontColor=default;" edge="1" parent="1" source="yHfBSHlc2RKCIh9T5XHs-12" target="yHfBSHlc2RKCIh9T5XHs-16">
          <mxGeometry relative="1" as="geometry" />
        </mxCell>
        <mxCell id="yHfBSHlc2RKCIh9T5XHs-12" value="LER X,Y" style="rounded=1;whiteSpace=wrap;html=1;labelBackgroundColor=none;" vertex="1" parent="1">
          <mxGeometry x="353.5" y="650" width="120" height="60" as="geometry" />
        </mxCell>
        <mxCell id="yHfBSHlc2RKCIh9T5XHs-21" style="edgeStyle=orthogonalEdgeStyle;rounded=0;orthogonalLoop=1;jettySize=auto;html=1;exitX=0.5;exitY=1;exitDx=0;exitDy=0;entryX=0.5;entryY=0;entryDx=0;entryDy=0;labelBackgroundColor=none;fontColor=default;" edge="1" parent="1" source="yHfBSHlc2RKCIh9T5XHs-15" target="yHfBSHlc2RKCIh9T5XHs-19">
          <mxGeometry relative="1" as="geometry">
            <Array as="points">
              <mxPoint x="330" y="840" />
              <mxPoint x="270" y="840" />
            </Array>
          </mxGeometry>
        </mxCell>
        <mxCell id="yHfBSHlc2RKCIh9T5XHs-15" value="OP = S" style="rhombus;whiteSpace=wrap;html=1;labelBackgroundColor=none;" vertex="1" parent="1">
          <mxGeometry x="290" y="750" width="80" height="80" as="geometry" />
        </mxCell>
        <mxCell id="yHfBSHlc2RKCIh9T5XHs-22" style="edgeStyle=orthogonalEdgeStyle;rounded=0;orthogonalLoop=1;jettySize=auto;html=1;exitX=0.5;exitY=1;exitDx=0;exitDy=0;entryX=0.75;entryY=0;entryDx=0;entryDy=0;labelBackgroundColor=none;fontColor=default;" edge="1" parent="1" source="yHfBSHlc2RKCIh9T5XHs-16" target="yHfBSHlc2RKCIh9T5XHs-20">
          <mxGeometry relative="1" as="geometry">
            <Array as="points">
              <mxPoint x="500" y="840" />
              <mxPoint x="590" y="840" />
            </Array>
          </mxGeometry>
        </mxCell>
        <mxCell id="yHfBSHlc2RKCIh9T5XHs-16" value="OP= M" style="rhombus;whiteSpace=wrap;html=1;labelBackgroundColor=none;" vertex="1" parent="1">
          <mxGeometry x="460" y="750" width="80" height="80" as="geometry" />
        </mxCell>
        <mxCell id="yHfBSHlc2RKCIh9T5XHs-26" style="edgeStyle=orthogonalEdgeStyle;rounded=0;orthogonalLoop=1;jettySize=auto;html=1;exitX=1;exitY=0.5;exitDx=0;exitDy=0;entryX=0.5;entryY=0;entryDx=0;entryDy=0;labelBackgroundColor=none;fontColor=default;" edge="1" parent="1" source="yHfBSHlc2RKCIh9T5XHs-19" target="yHfBSHlc2RKCIh9T5XHs-23">
          <mxGeometry relative="1" as="geometry" />
        </mxCell>
        <mxCell id="yHfBSHlc2RKCIh9T5XHs-19" value="RES = X + Y" style="rounded=1;whiteSpace=wrap;html=1;labelBackgroundColor=none;" vertex="1" parent="1">
          <mxGeometry x="210" y="850" width="120" height="60" as="geometry" />
        </mxCell>
        <mxCell id="yHfBSHlc2RKCIh9T5XHs-27" style="edgeStyle=orthogonalEdgeStyle;rounded=0;orthogonalLoop=1;jettySize=auto;html=1;exitX=0;exitY=0.5;exitDx=0;exitDy=0;entryX=0.5;entryY=0;entryDx=0;entryDy=0;labelBackgroundColor=none;fontColor=default;" edge="1" parent="1" source="yHfBSHlc2RKCIh9T5XHs-20" target="yHfBSHlc2RKCIh9T5XHs-23">
          <mxGeometry relative="1" as="geometry" />
        </mxCell>
        <mxCell id="yHfBSHlc2RKCIh9T5XHs-20" value="RES = X * Y" style="rounded=1;whiteSpace=wrap;html=1;labelBackgroundColor=none;" vertex="1" parent="1">
          <mxGeometry x="500" y="850" width="120" height="60" as="geometry" />
        </mxCell>
        <mxCell id="yHfBSHlc2RKCIh9T5XHs-23" value="ESCREVER RES" style="rounded=1;whiteSpace=wrap;html=1;labelBackgroundColor=none;" vertex="1" parent="1">
          <mxGeometry x="354" y="920" width="120" height="60" as="geometry" />
        </mxCell>
      </root>
    </mxGraphModel>
  </diagram>
</mxfile>
